<svg width="280" height="30" viewBox="0 0 280 30" fill="none" xmlns="http://www.w3.org/2000/svg">
<path d="M11.48 0.999998V29H3.28V0.999998H11.48ZM20.56 14.2V16.2H11.36V14.2H20.56ZM22.68 0.999998V3.04H11.36V0.999998H22.68ZM20.56 16.12V20.76H20.16V20.56C20.16 19.3067 19.7467 18.28 18.92 17.48C18.12 16.6533 17.0933 16.2267 15.84 16.2V16.12H20.56ZM20.56 9.64V14.28H15.84V14.2C17.0933 14.1733 18.1333 13.7467 18.96 12.92C19.7867 12.0933 20.1867 11.0533 20.16 9.8V9.64H20.56ZM22.68 2.92V8.52H22.28V8.2C22.28 6.6 21.8267 5.34667 20.92 4.44C20.0133 3.50667 18.7467 3.02666 17.12 3V2.92H22.68ZM22.68 0.279998V1.44L17.8 0.999998C18.3867 0.999998 19 0.959999 19.64 0.88C20.3067 0.799999 20.92 0.706665 21.48 0.599998C22.04 0.493332 22.44 0.386665 22.68 0.279998ZM3.4 26.08V29H0.2V28.6C0.2 28.6 0.28 28.6 0.44 28.6C0.626667 28.6 0.72 28.6 0.72 28.6C1.41333 28.6 2 28.36 2.48 27.88C2.98667 27.3733 3.25333 26.7733 3.28 26.08H3.4ZM3.4 3.92H3.28C3.25333 3.22666 2.98667 2.64 2.48 2.16C2 1.65333 1.41333 1.4 0.72 1.4C0.72 1.4 0.626667 1.4 0.44 1.4C0.28 1.4 0.2 1.4 0.2 1.4V0.999998H3.4V3.92ZM11.36 26.08H11.48C11.5067 26.7733 11.76 27.3733 12.24 27.88C12.7467 28.36 13.3467 28.6 14.04 28.6C14.04 28.6 14.12 28.6 14.28 28.6C14.44 28.6 14.5333 28.6 14.56 28.6V29H11.36V26.08ZM33.5466 3.56L45.9466 28.8H36.8666L30.1066 13.36L33.5466 3.56ZM26.1466 26.56C25.8532 27.2267 25.8932 27.7333 26.2666 28.08C26.6399 28.4267 27.0532 28.6 27.5066 28.6H27.7866V29H19.5466V28.6C19.5466 28.6 19.5999 28.6 19.7066 28.6C19.8132 28.6 19.8666 28.6 19.8666 28.6C20.3999 28.6 20.9599 28.4533 21.5466 28.16C22.1332 27.84 22.5999 27.3067 22.9466 26.56H26.1466ZM33.5466 3.56L33.5066 9.68L25.1066 28.88H21.8666L31.1466 8.88C31.2532 8.61333 31.4132 8.25333 31.6266 7.8C31.8399 7.32 32.0532 6.81333 32.2666 6.28C32.5066 5.72 32.7199 5.2 32.9066 4.72C33.0932 4.24 33.1999 3.85333 33.2266 3.56H33.5466ZM36.2266 22.12V23.92H26.2666V22.12H36.2266ZM35.8666 26.56H44.8266C45.1999 27.3067 45.6799 27.84 46.2666 28.16C46.8532 28.4533 47.4132 28.6 47.9466 28.6C47.9466 28.6 47.9999 28.6 48.1066 28.6C48.2132 28.6 48.2666 28.6 48.2666 28.6V29H34.1866V28.6H34.5066C34.9599 28.6 35.3732 28.4267 35.7466 28.08C36.1199 27.7333 36.1599 27.2267 35.8666 26.56ZM56.9213 4.52C57.3213 4.52 57.9613 4.54667 58.8413 4.6C59.7213 4.62667 60.6413 4.68 61.6013 4.76C62.5879 4.84 63.4546 4.93333 64.2013 5.04C64.9479 5.12 65.4013 5.2 65.5613 5.28L64.6813 10.72H64.4413C64.4413 9.44 63.9746 8.4 63.0413 7.6C62.1079 6.8 60.8413 6.4 59.2413 6.4C57.9879 6.4 57.0146 6.64 56.3213 7.12C55.6279 7.57333 55.2279 8.21333 55.1213 9.04C55.0679 9.62667 55.1879 10.12 55.4813 10.52C55.8013 10.8933 56.2279 11.2133 56.7613 11.48C57.2946 11.7467 57.8413 12 58.4013 12.24L63.5613 14.6C64.8946 15.1867 65.9746 16.0667 66.8013 17.24C67.6279 18.3867 67.9613 19.88 67.8013 21.72C67.6679 23.4267 67.1613 24.8667 66.2813 26.04C65.4013 27.1867 64.1746 28.0533 62.6013 28.64C61.0279 29.2 59.1346 29.48 56.9213 29.48C55.5346 29.48 54.3213 29.3733 53.2813 29.16C52.2413 28.9467 51.3879 28.6667 50.7213 28.32C50.0546 27.9733 49.5613 27.6 49.2413 27.2C48.9479 26.5867 48.8279 25.84 48.8813 24.96C48.9346 24.08 49.1079 23.2267 49.4013 22.4C49.6946 21.5467 50.0413 20.8667 50.4413 20.36H50.6813C50.6279 21.56 50.8679 22.72 51.4013 23.84C51.9613 24.9333 52.7879 25.84 53.8813 26.56C55.0013 27.2533 56.3479 27.6133 57.9213 27.64C59.4146 27.6667 60.4813 27.3467 61.1213 26.68C61.7879 26.0133 62.1213 25.2933 62.1213 24.52C62.1213 23.7733 61.8013 23.0933 61.1613 22.48C60.5479 21.8667 59.5346 21.2533 58.1213 20.64L53.9213 18.68C52.2146 17.96 50.9479 16.9067 50.1213 15.52C49.3213 14.1067 49.0546 12.5067 49.3213 10.72C49.5346 9.33333 49.9613 8.18667 50.6013 7.28C51.2679 6.34667 52.1346 5.65333 53.2013 5.2C54.2679 4.74667 55.5079 4.52 56.9213 4.52ZM65.6413 4.88L65.5213 5.56H60.3213V4.88H65.6413ZM95.6438 5V29H87.8438V5H95.6438ZM80.0438 5V29H72.2038V5H80.0438ZM88.1238 16.04V17.88H79.7238V16.04H88.1238ZM72.3238 26.52V29H69.6838V28.6C69.6838 28.6 69.7504 28.6 69.8838 28.6C70.0171 28.6 70.0971 28.6 70.1238 28.6C70.6838 28.6 71.1638 28.4 71.5638 28C71.9904 27.6 72.2038 27.1067 72.2038 26.52H72.3238ZM79.9638 26.52H80.0438C80.0704 27.1067 80.2838 27.6 80.6838 28C81.0838 28.4 81.5771 28.6 82.1638 28.6C82.1638 28.6 82.2304 28.6 82.3638 28.6C82.4971 28.6 82.5638 28.6 82.5638 28.6V29H79.9638V26.52ZM79.9638 7.48V5H82.5638V5.4C82.5638 5.4 82.4971 5.4 82.3638 5.4C82.2304 5.4 82.1638 5.4 82.1638 5.4C81.5771 5.4 81.0838 5.6 80.6838 6C80.2838 6.37333 80.0704 6.86666 80.0438 7.48H79.9638ZM72.3238 7.48H72.2038C72.2038 6.86666 71.9904 6.37333 71.5638 6C71.1638 5.6 70.6838 5.4 70.1238 5.4C70.0971 5.4 70.0171 5.4 69.8838 5.4C69.7504 5.4 69.6838 5.4 69.6838 5.4V5H72.3238V7.48ZM87.9238 26.52V29H85.3238V28.6C85.3238 28.6 85.3904 28.6 85.5238 28.6C85.6571 28.6 85.7238 28.6 85.7238 28.6C86.3104 28.6 86.8038 28.4 87.2038 28C87.6038 27.6 87.8171 27.1067 87.8438 26.52H87.9238ZM95.5238 26.52H95.6438C95.6438 27.1067 95.8438 27.6 96.2438 28C96.6438 28.4 97.1371 28.6 97.7238 28.6C97.7238 28.6 97.7904 28.6 97.9238 28.6C98.0838 28.6 98.1638 28.6 98.1638 28.6V29H95.5238V26.52ZM95.5638 7.48V5H98.2038V5.4C98.2038 5.4 98.1238 5.4 97.9638 5.4C97.8304 5.4 97.7638 5.4 97.7638 5.4C97.1771 5.4 96.6838 5.6 96.2838 6C95.8838 6.37333 95.6838 6.86666 95.6838 7.48H95.5638ZM87.9238 7.48H87.8438C87.8171 6.86666 87.6038 6.37333 87.2038 6C86.8038 5.6 86.3104 5.4 85.7238 5.4C85.7238 5.4 85.6571 5.4 85.5238 5.4C85.3904 5.4 85.3238 5.4 85.3238 5.4V5H87.9238V7.48ZM109.769 5V29H101.929V5H109.769ZM102.049 26.52V29H99.4494V28.6C99.4494 28.6 99.516 28.6 99.6494 28.6C99.7827 28.6 99.8627 28.6 99.8894 28.6C100.423 28.6 100.889 28.4 101.289 28C101.716 27.6 101.929 27.1067 101.929 26.52H102.049ZM109.689 26.52H109.769C109.796 27.1067 110.009 27.6 110.409 28C110.809 28.4 111.289 28.6 111.849 28.6C111.849 28.6 111.916 28.6 112.049 28.6C112.183 28.6 112.263 28.6 112.289 28.6V29H109.689V26.52ZM109.689 7.48V5H112.249V5.4C112.249 5.4 112.183 5.4 112.049 5.4C111.943 5.4 111.876 5.4 111.849 5.4C111.289 5.4 110.809 5.6 110.409 6C110.009 6.37333 109.796 6.86666 109.769 7.48H109.689ZM102.049 7.48H101.929C101.929 6.86666 101.716 6.37333 101.289 6C100.889 5.6 100.423 5.4 99.8894 5.4C99.8627 5.4 99.7827 5.4 99.6494 5.4C99.516 5.4 99.4494 5.4 99.4494 5.4V5H102.049V7.48ZM128.505 4.52C130.799 4.52 132.839 4.8 134.625 5.36C136.439 5.92 137.972 6.73333 139.225 7.8C140.505 8.86667 141.465 10.1733 142.105 11.72C142.772 13.2667 143.105 15.04 143.105 17.04C143.105 19.0133 142.772 20.7733 142.105 22.32C141.465 23.84 140.505 25.1333 139.225 26.2C137.972 27.2667 136.439 28.08 134.625 28.64C132.839 29.2 130.799 29.48 128.505 29.48C126.239 29.48 124.199 29.2 122.385 28.64C120.599 28.08 119.065 27.2667 117.785 26.2C116.532 25.1333 115.572 23.84 114.905 22.32C114.265 20.7733 113.945 19.0133 113.945 17.04C113.945 15.04 114.265 13.2667 114.905 11.72C115.572 10.1733 116.532 8.86667 117.785 7.8C119.065 6.73333 120.599 5.92 122.385 5.36C124.199 4.8 126.239 4.52 128.505 4.52ZM128.505 27.68C129.919 27.68 131.092 27.2667 132.025 26.44C132.985 25.5867 133.705 24.3733 134.185 22.8C134.665 21.2 134.905 19.28 134.905 17.04C134.905 14.7733 134.665 12.84 134.185 11.24C133.705 9.64 132.985 8.42667 132.025 7.6C131.092 6.74667 129.919 6.32 128.505 6.32C127.119 6.32 125.945 6.74667 124.985 7.6C124.052 8.42667 123.332 9.64 122.825 11.24C122.345 12.84 122.105 14.7733 122.105 17.04C122.105 19.28 122.345 21.2 122.825 22.8C123.332 24.3733 124.052 25.5867 124.985 26.44C125.945 27.2667 127.119 27.68 128.505 27.68ZM146.809 4.48L171.129 24.96L171.569 29.48L147.249 9.08L146.809 4.48ZM147.049 26.6V29H144.089V28.6C144.089 28.6 144.196 28.6 144.409 28.6C144.623 28.6 144.729 28.6 144.729 28.6C145.343 28.6 145.863 28.4133 146.289 28.04C146.716 27.6667 146.929 27.1867 146.929 26.6H147.049ZM154.769 26.6C154.796 27.1867 155.023 27.6667 155.449 28.04C155.876 28.4133 156.383 28.6 156.969 28.6C156.969 28.6 157.076 28.6 157.289 28.6C157.503 28.6 157.609 28.6 157.609 28.6V29H154.689V26.6H154.769ZM146.809 4.48L154.769 12.92V29H146.929V8.72C146.929 7.36 146.849 6.32 146.689 5.6C146.529 4.85333 146.449 4.48 146.449 4.48H146.809ZM171.449 5V25.12C171.449 26.08 171.489 26.8933 171.569 27.56C171.649 28.2 171.729 28.68 171.809 29C171.889 29.32 171.929 29.48 171.929 29.48H171.569L163.609 20.36L163.569 5H171.449ZM171.369 7.4V5H174.329V5.4C174.329 5.4 174.209 5.4 173.969 5.4C173.756 5.4 173.649 5.4 173.649 5.4C173.063 5.4 172.556 5.58667 172.129 5.96C171.703 6.33333 171.476 6.81333 171.449 7.4H171.369ZM163.569 7.4C163.569 6.81333 163.356 6.33333 162.929 5.96C162.529 5.58667 162.023 5.4 161.409 5.4C161.409 5.4 161.289 5.4 161.049 5.4C160.836 5.4 160.729 5.4 160.729 5.4V5H163.689V7.4H163.569ZM187.261 0.999998V29H179.061V0.999998H187.261ZM197.661 26.96L199.261 29H187.141V26.96H197.661ZM196.341 14.2V16.2H187.141V14.2H196.341ZM198.461 0.999998V3.04H187.141V0.999998H198.461ZM200.901 19.72L199.381 29H190.741L192.181 26.96C193.461 26.96 194.648 26.68 195.741 26.12C196.861 25.5333 197.835 24.7067 198.661 23.64C199.488 22.5467 200.101 21.24 200.501 19.72H200.901ZM196.341 16.12V20.76H195.941V20.56C195.941 19.3067 195.528 18.28 194.701 17.48C193.901 16.6533 192.875 16.2267 191.621 16.2V16.12H196.341ZM196.341 9.64V14.28H191.621V14.2C192.875 14.1733 193.915 13.7467 194.741 12.92C195.568 12.0933 195.968 11.0533 195.941 9.8V9.64H196.341ZM198.461 2.92V8.52H198.061V8.2C198.061 6.6 197.608 5.34667 196.701 4.44C195.795 3.50667 194.528 3.02666 192.901 3V2.92H198.461ZM198.461 0.279998V1.44L193.581 0.999998C194.168 0.999998 194.781 0.959999 195.421 0.88C196.088 0.799999 196.701 0.706665 197.261 0.599998C197.821 0.493332 198.221 0.386665 198.461 0.279998ZM179.181 26.08V29H175.981V28.6C175.981 28.6 176.061 28.6 176.221 28.6C176.408 28.6 176.501 28.6 176.501 28.6C177.195 28.6 177.781 28.36 178.261 27.88C178.768 27.3733 179.035 26.7733 179.061 26.08H179.181ZM179.181 3.92H179.061C179.035 3.22666 178.768 2.64 178.261 2.16C177.781 1.65333 177.195 1.4 176.501 1.4C176.501 1.4 176.408 1.4 176.221 1.4C176.061 1.4 175.981 1.4 175.981 1.4V0.999998H179.181V3.92ZM214.221 29.48L201.981 5.2H211.141L217.621 19.68L214.221 29.48ZM214.221 29.48L214.141 23.6L222.501 5.12H225.701L216.621 24.12C216.514 24.36 216.354 24.72 216.141 25.2C215.928 25.6533 215.701 26.16 215.461 26.72C215.248 27.2533 215.048 27.7733 214.861 28.28C214.701 28.76 214.594 29.16 214.541 29.48H214.221ZM221.421 7.48C221.714 6.78667 221.674 6.26667 221.301 5.92C220.954 5.54667 220.554 5.36 220.101 5.36H219.781V5H227.981V5.4C227.981 5.4 227.928 5.4 227.821 5.4C227.714 5.4 227.661 5.4 227.661 5.4C227.154 5.4 226.608 5.56 226.021 5.88C225.434 6.17333 224.954 6.70667 224.581 7.48H221.421ZM212.141 7.48H203.141C202.768 6.70667 202.288 6.17333 201.701 5.88C201.141 5.56 200.594 5.4 200.061 5.4C200.061 5.4 200.021 5.4 199.941 5.4C199.834 5.4 199.781 5.4 199.781 5.4V5H213.821V5.36H213.501C213.074 5.36 212.674 5.54667 212.301 5.92C211.928 6.26667 211.874 6.78667 212.141 7.48ZM237.856 5V29H230.016V5H237.856ZM246.296 27.16L247.896 29H237.776V27.16H246.296ZM245.296 16.24V18.12H237.776V16.24H245.296ZM247.056 5V6.84H237.776V5H247.056ZM249.096 20.6L247.976 29H240.536L241.696 27.16C242.736 27.16 243.723 26.9067 244.656 26.4C245.616 25.8667 246.456 25.12 247.176 24.16C247.896 23.1733 248.416 21.9867 248.736 20.6H249.096ZM245.296 18.04V22.36H244.896V22.2C244.896 21.0267 244.523 20.0667 243.776 19.32C243.056 18.5467 242.11 18.1467 240.936 18.12V18.04H245.296ZM245.296 12.04V16.32H240.936V16.24C242.11 16.2133 243.056 15.8133 243.776 15.04C244.523 14.2667 244.896 13.2933 244.896 12.12V12.04H245.296ZM247.056 6.76V11.96H246.656V11.76C246.656 10.2133 246.256 9.01333 245.456 8.16C244.656 7.30667 243.496 6.86667 241.976 6.84V6.76H247.056ZM247.056 4.4V5.36L243.096 5C243.816 5 244.576 4.93333 245.376 4.8C246.203 4.64 246.763 4.50667 247.056 4.4ZM230.136 26.52L230.096 29H227.496V28.6C227.496 28.6 227.563 28.6 227.696 28.6C227.83 28.6 227.91 28.6 227.936 28.6C228.496 28.6 228.976 28.4 229.376 28C229.803 27.6 230.016 27.1067 230.016 26.52H230.136ZM230.136 7.52H230.016C230.016 6.90667 229.803 6.4 229.376 6C228.976 5.6 228.496 5.4 227.936 5.4C227.91 5.4 227.83 5.4 227.696 5.4C227.563 5.4 227.496 5.4 227.496 5.4V5H230.096L230.136 7.52ZM260.984 5H264.704C265.717 5 266.757 5.09333 267.824 5.28C268.891 5.44 269.877 5.74667 270.784 6.2C271.691 6.65333 272.424 7.32 272.984 8.2C273.544 9.05333 273.824 10.1867 273.824 11.6C273.824 12.4 273.677 13.2533 273.384 14.16C273.117 15.0667 272.611 15.88 271.864 16.6C271.144 17.2933 270.091 17.76 268.704 18C269.717 18.2667 270.611 18.7733 271.384 19.52C272.157 20.2667 272.717 20.9467 273.064 21.56C273.251 21.88 273.451 22.28 273.664 22.76C273.904 23.2133 274.184 23.72 274.504 24.28C274.824 24.84 275.184 25.44 275.584 26.08C276.091 26.8533 276.531 27.4267 276.904 27.8C277.277 28.1467 277.637 28.3733 277.984 28.48C278.331 28.56 278.717 28.6 279.144 28.6V29H274.424C273.011 29 271.784 28.9467 270.744 28.84C269.704 28.7067 268.771 28.36 267.944 27.8C267.144 27.2133 266.357 26.2667 265.584 24.96C265.291 24.4533 265.037 23.9867 264.824 23.56C264.637 23.1067 264.477 22.6667 264.344 22.24C264.211 21.8133 264.091 21.3733 263.984 20.92C263.904 20.4667 263.811 20 263.704 19.52C263.517 18.5867 263.277 17.9867 262.984 17.72C262.691 17.4267 262.491 17.2667 262.384 17.24V16.92C262.411 16.92 262.437 16.92 262.464 16.92C262.491 16.92 262.531 16.92 262.584 16.92C263.011 16.92 263.437 16.7867 263.864 16.52C264.291 16.2533 264.664 15.8133 264.984 15.2C265.304 14.56 265.517 13.68 265.624 12.56C265.624 12.48 265.637 12.3333 265.664 12.12C265.691 11.9067 265.691 11.6267 265.664 11.28C265.611 10.1333 265.411 9.26667 265.064 8.68C264.717 8.06667 264.317 7.64 263.864 7.4C263.437 7.16 263.051 7.02667 262.704 7C262.357 6.94667 262.157 6.92 262.104 6.92C262.051 6.92 261.984 6.92 261.904 6.92C261.851 6.92 261.637 6.92 261.264 6.92C261.237 6.92 261.197 6.76 261.144 6.44C261.117 6.12 261.077 5.8 261.024 5.48C260.997 5.16 260.984 5 260.984 5ZM261.304 5V29H253.424V5H261.304ZM253.544 26.52L253.504 29H250.944V28.6C250.997 28.6 251.051 28.6 251.104 28.6C251.184 28.6 251.277 28.6 251.384 28.6C251.917 28.6 252.384 28.4 252.784 28C253.211 27.6 253.424 27.1067 253.424 26.52H253.544ZM253.544 7.48H253.424C253.424 6.86666 253.224 6.37333 252.824 6C252.424 5.6 251.957 5.4 251.424 5.4C251.317 5.4 251.224 5.4 251.144 5.4C251.064 5.4 250.997 5.4 250.944 5.4V5H253.504L253.544 7.48ZM261.224 26.52H261.304C261.304 27.2133 261.544 27.7333 262.024 28.08C262.504 28.4267 262.971 28.6 263.424 28.6C263.424 28.6 263.464 28.6 263.544 28.6C263.624 28.6 263.704 28.6 263.784 28.6V29H261.264L261.224 26.52Z" fill="black"/>
</svg>
